<?xml version="1.0" encoding="utf-8"?>
<!-- Generated by Mocodo 4.2.10 -->
<svg width="310" height="322" viewBox="0 0 310 322" xmlns="http://www.w3.org/2000/svg">
<rect x="0" y="0" width="310" height="322" fill="#f7f7f7" stroke="none" stroke-width="0"/>

<!-- Association LIRE2 -->
<g>
	<line x1="138" y1="187" x2="138" y2="60" stroke="#d6604d" stroke-width="2"/>
	<line x1="245" y1="60" x2="138" y2="60" stroke="#d6604d" stroke-width="2"/>
	<g>
		<path d="M146 35 a14 14 90 0 1 14 14 V60 h-44 V49 a14 14 90 0 1 14 -14" fill="#f4a582" stroke="#f4a582" stroke-width="0"/>
		<path d="M160 60 v11 a14 14 90 0 1 -14 14 H130 a14 14 90 0 1 -14 -14 V60 H44" fill="#fddbc7" stroke="#fddbc7" stroke-width="0"/>
		<rect x="116" y="35" width="44" height="50" fill="none" rx="14" stroke="#d6604d" stroke-width="2"/>
		<line x1="116" y1="60" x2="160" y2="60" stroke="#d6604d" stroke-width="1"/>
		<text x="124" y="52.75" fill="#000000" font-family="Verdana" font-size="12">LIRE</text>
	</g>
	<text x="143" y="128" fill="#2166ac" font-family="Verdana" font-size="12">0,N</text>
	<text x="190" y="77" fill="#2166ac" font-family="Verdana" font-size="12">1,N</text>
</g>

<!-- Association LIRE -->
<g>
	<line x1="138" y1="187" x2="37" y2="187" stroke="#d6604d" stroke-width="2"/>
	<line x1="37" y1="60" x2="37" y2="187" stroke="#d6604d" stroke-width="2"/>
	<g>
		<path d="M45 162 a14 14 90 0 1 14 14 V187 h-44 V176 a14 14 90 0 1 14 -14" fill="#f4a582" stroke="#f4a582" stroke-width="0"/>
		<path d="M59 187 v11 a14 14 90 0 1 -14 14 H29 a14 14 90 0 1 -14 -14 V187 H44" fill="#fddbc7" stroke="#fddbc7" stroke-width="0"/>
		<rect x="15" y="162" width="44" height="50" fill="none" rx="14" stroke="#d6604d" stroke-width="2"/>
		<line x1="15" y1="187" x2="59" y2="187" stroke="#d6604d" stroke-width="1"/>
		<text x="23" y="179.75" fill="#000000" font-family="Verdana" font-size="12">LIRE</text>
	</g>
	<text x="64" y="204" fill="#2166ac" font-family="Verdana" font-size="12">0,N</text>
	<text x="42" y="128" fill="#2166ac" font-family="Verdana" font-size="12">1,N</text>
</g>

<!-- Association JOUER -->
<g>
	<line x1="138" y1="187" x2="245" y2="187" stroke="#d6604d" stroke-width="2"/>
	<line x1="245" y1="288" x2="245" y2="187" stroke="#d6604d" stroke-width="2"/>
	<g>
		<path d="M259 162 a14 14 90 0 1 14 14 V187 h-56 V176 a14 14 90 0 1 14 -14" fill="#f4a582" stroke="#f4a582" stroke-width="0"/>
		<path d="M273 187 v11 a14 14 90 0 1 -14 14 H231 a14 14 90 0 1 -14 -14 V187 H56" fill="#fddbc7" stroke="#fddbc7" stroke-width="0"/>
		<rect x="217" y="162" width="56" height="50" fill="none" rx="14" stroke="#d6604d" stroke-width="2"/>
		<line x1="217" y1="187" x2="273" y2="187" stroke="#d6604d" stroke-width="1"/>
		<text x="225" y="179.75" fill="#000000" font-family="Verdana" font-size="12">JOUER</text>
	</g>
	<text x="190" y="204" fill="#2166ac" font-family="Verdana" font-size="12">0,N</text>
	<text x="250" y="255" fill="#2166ac" font-family="Verdana" font-size="12">1,N</text>
</g>

<!-- Entity BD -->
<g>
	<g>
		<rect x="9" y="9" width="56" height="25" fill="#92c5de" stroke="none" stroke-width="0" opacity="1"/>
		<rect x="9" y="34" width="56" height="77" fill="#d1e5f0" stroke="none" stroke-width="0" opacity="1"/>
		<rect x="9" y="9" width="56" height="102" fill="none" stroke="#4393c3" stroke-width="2" opacity="1"/>
		<line x1="9" y1="34" x2="65" y2="34" stroke="#4393c3" stroke-width="1"/>
	</g>
	<text x="28" y="26.75" fill="#000000" font-family="Verdana" font-size="12">BD</text>
	<text x="14" y="51.8" fill="#000000" font-family="Verdana" font-size="12">ISBN</text>
	<line x1="14" y1="54" x2="46" y2="54" stroke="#000000" stroke-width="1"/>
	<text x="14" y="68.8" fill="#000000" font-family="Verdana" font-size="12">titre</text>
	<text x="14" y="85.8" fill="#000000" font-family="Verdana" font-size="12">volume</text>
	<text x="14" y="102.8" fill="#000000" font-family="Verdana" font-size="12">série</text>
</g>

<!-- Entity LIVRE -->
<g>
	<g>
		<rect x="217" y="9" width="56" height="25" fill="#92c5de" stroke="none" stroke-width="0" opacity="1"/>
		<rect x="217" y="34" width="56" height="77" fill="#d1e5f0" stroke="none" stroke-width="0" opacity="1"/>
		<rect x="217" y="9" width="56" height="102" fill="none" stroke="#4393c3" stroke-width="2" opacity="1"/>
		<line x1="217" y1="34" x2="273" y2="34" stroke="#4393c3" stroke-width="1"/>
	</g>
	<text x="227" y="26.75" fill="#000000" font-family="Verdana" font-size="12">LIVRE</text>
	<text x="222" y="51.8" fill="#000000" font-family="Verdana" font-size="12">ISBN</text>
	<line x1="222" y1="54" x2="254" y2="54" stroke="#000000" stroke-width="1"/>
	<text x="222" y="68.8" fill="#000000" font-family="Verdana" font-size="12">titre</text>
	<text x="222" y="85.8" fill="#000000" font-family="Verdana" font-size="12">volume</text>
	<text x="222" y="102.8" fill="#000000" font-family="Verdana" font-size="12">série</text>
</g>

<!-- Entity UTILISATEUR -->
<g>
	<g>
		<rect x="91" y="136" width="94" height="25" fill="#92c5de" stroke="none" stroke-width="0" opacity="1"/>
		<rect x="91" y="161" width="94" height="77" fill="#d1e5f0" stroke="none" stroke-width="0" opacity="1"/>
		<rect x="91" y="136" width="94" height="102" fill="none" stroke="#4393c3" stroke-width="2" opacity="1"/>
		<line x1="91" y1="161" x2="185" y2="161" stroke="#4393c3" stroke-width="1"/>
	</g>
	<text x="97" y="153.75" fill="#000000" font-family="Verdana" font-size="12">UTILISATEUR</text>
	<text x="96" y="178.8" fill="#000000" font-family="Verdana" font-size="12">email</text>
	<line x1="96" y1="181" x2="130" y2="181" stroke="#000000" stroke-width="1"/>
	<text x="96" y="195.8" fill="#000000" font-family="Verdana" font-size="12">pseudonyme</text>
	<text x="96" y="212.8" fill="#000000" font-family="Verdana" font-size="12">mot de passe</text>
	<text x="96" y="229.8" fill="#000000" font-family="Verdana" font-size="12">rôle</text>
</g>

<!-- Entity JEU_DE_PLATEAU -->
<g>
	<g>
		<rect x="189" y="263" width="112" height="25" fill="#92c5de" stroke="none" stroke-width="0" opacity="1"/>
		<rect x="189" y="288" width="112" height="25" fill="#d1e5f0" stroke="none" stroke-width="0" opacity="1"/>
		<rect x="189" y="263" width="112" height="50" fill="none" stroke="#4393c3" stroke-width="2" opacity="1"/>
		<line x1="189" y1="288" x2="301" y2="288" stroke="#4393c3" stroke-width="1"/>
	</g>
	<text x="194" y="280.75" fill="#000000" font-family="Verdana" font-size="12">JEU DE PLATEAU</text>
	<text x="194" y="305.8" fill="#000000" font-family="Verdana" font-size="12">titre</text>
	<line x1="194" y1="308" x2="220" y2="308" stroke="#000000" stroke-width="1"/>
</g>
</svg>